<?xml version="1.0" standalone="no"?>
<!DOCTYPE svg PUBLIC "-//W3C//DTD SVG 20010904//EN"
 "http://www.w3.org/TR/2001/REC-SVG-20010904/DTD/svg10.dtd">
<svg version="1.0" xmlns="http://www.w3.org/2000/svg"
 width="612.000000pt" height="490.000000pt" viewBox="0 0 612.000000 490.000000"
 preserveAspectRatio="xMidYMid meet">

<g transform="translate(0.000000,490.000000) scale(0.100000,-0.100000)"
fill="#000000" stroke="none">
<path d="M2345 3366 c-64 -28 -115 -102 -115 -169 0 -27 28 -89 53 -115 54
-58 41 -57 567 -62 l485 -5 55 -26 c172 -81 274 -275 241 -457 -31 -170 -162
-305 -329 -341 -29 -6 -129 -11 -221 -11 -156 0 -171 -2 -212 -23 -120 -63
-119 -244 1 -304 41 -22 57 -23 243 -23 225 0 296 11 415 66 229 105 384 295
443 542 18 72 20 106 16 197 -7 130 -25 201 -78 310 -75 154 -193 271 -354
350 -161 80 -149 79 -695 82 -391 2 -491 0 -515 -11z"/>
<path d="M2734 2770 c-201 -29 -377 -155 -463 -330 -68 -139 -72 -177 -69
-614 l3 -383 28 -36 c49 -64 106 -87 182 -73 37 7 97 53 118 90 9 15 13 132
17 411 6 429 5 425 70 499 67 76 84 80 366 86 l250 5 42 28 c51 33 82 91 82
152 0 78 -51 143 -128 165 -42 11 -419 12 -498 0z"/>
</g>
</svg>
